<?xml version="1.0" encoding="UTF-8" standalone="no"?>
<!DOCTYPE svg PUBLIC "-//W3C//DTD SVG 1.1//EN"
 "http://www.w3.org/Graphics/SVG/1.1/DTD/svg11.dtd">
<!-- Generated by graphviz version 2.40.1 (20161225.0304)
 -->
<!-- Title: controllers_diagram Pages: 1 -->
<svg width="710pt" height="707pt"
 viewBox="0.00 0.00 710.07 707.00" xmlns="http://www.w3.org/2000/svg" xmlns:xlink="http://www.w3.org/1999/xlink">
<g id="graph0" class="graph" transform="scale(1 1) rotate(0) translate(4 703)">
<title>controllers_diagram</title>
<polygon fill="transparent" stroke="transparent" points="-4,4 -4,-703 706.0654,-703 706.0654,4 -4,4"/>
<!-- _diagram_info -->
<g id="node1" class="node">
<title>_diagram_info</title>
<text text-anchor="start" x="56" y="-138.6" font-family="Times,serif" font-size="13.00" fill="#000000">Controllers diagram</text>
<text text-anchor="start" x="56" y="-125.6" font-family="Times,serif" font-size="13.00" fill="#000000">Date: Nov 02 2017 &#45; 13:24</text>
<text text-anchor="start" x="56" y="-112.6" font-family="Times,serif" font-size="13.00" fill="#000000">Migration version: 20171101225746</text>
<text text-anchor="start" x="56" y="-99.6" font-family="Times,serif" font-size="13.00" fill="#000000">Generated by RailRoady 1.5.3</text>
<text text-anchor="start" x="56" y="-86.6" font-family="Times,serif" font-size="13.00" fill="#000000">http://railroady.prestonlee.com</text>
</g>
<!-- ApplicationController -->
<g id="node2" class="node">
<title>ApplicationController</title>
<path fill="none" stroke="#000000" d="M28,-192.5C28,-192.5 143.6416,-192.5 143.6416,-192.5 149.6416,-192.5 155.6416,-198.5 155.6416,-204.5 155.6416,-204.5 155.6416,-270.5 155.6416,-270.5 155.6416,-276.5 149.6416,-282.5 143.6416,-282.5 143.6416,-282.5 28,-282.5 28,-282.5 22,-282.5 16,-276.5 16,-270.5 16,-270.5 16,-204.5 16,-204.5 16,-198.5 22,-192.5 28,-192.5"/>
<text text-anchor="middle" x="85.8208" y="-267.3" font-family="Times,serif" font-size="14.00" fill="#000000">ApplicationController</text>
<polyline fill="none" stroke="#000000" points="16,-260.5 155.6416,-260.5 "/>
<text text-anchor="start" x="24" y="-245.3" font-family="Times,serif" font-size="14.00" fill="#000000">filter_admin!</text>
<polyline fill="none" stroke="#000000" points="16,-238.5 155.6416,-238.5 "/>
<polyline fill="none" stroke="#000000" points="16,-214.5 155.6416,-214.5 "/>
<text text-anchor="start" x="24" y="-199.3" font-family="Times,serif" font-size="14.00" fill="#000000">_layout</text>
</g>
<!-- PostsController -->
<g id="node3" class="node">
<title>PostsController</title>
<path fill="none" stroke="#000000" d="M476,-496.5C476,-496.5 555.1172,-496.5 555.1172,-496.5 561.1172,-496.5 567.1172,-502.5 567.1172,-508.5 567.1172,-508.5 567.1172,-686.5 567.1172,-686.5 567.1172,-692.5 561.1172,-698.5 555.1172,-698.5 555.1172,-698.5 476,-698.5 476,-698.5 470,-698.5 464,-692.5 464,-686.5 464,-686.5 464,-508.5 464,-508.5 464,-502.5 470,-496.5 476,-496.5"/>
<text text-anchor="middle" x="515.5586" y="-683.3" font-family="Times,serif" font-size="14.00" fill="#000000">PostsController</text>
<polyline fill="none" stroke="#000000" points="464,-676.5 567.1172,-676.5 "/>
<text text-anchor="start" x="472" y="-661.3" font-family="Times,serif" font-size="14.00" fill="#000000">index</text>
<text text-anchor="start" x="472" y="-647.3" font-family="Times,serif" font-size="14.00" fill="#000000">destroy</text>
<text text-anchor="start" x="472" y="-633.3" font-family="Times,serif" font-size="14.00" fill="#000000">edit</text>
<text text-anchor="start" x="472" y="-619.3" font-family="Times,serif" font-size="14.00" fill="#000000">create</text>
<text text-anchor="start" x="472" y="-605.3" font-family="Times,serif" font-size="14.00" fill="#000000">new</text>
<text text-anchor="start" x="472" y="-591.3" font-family="Times,serif" font-size="14.00" fill="#000000">show</text>
<text text-anchor="start" x="472" y="-577.3" font-family="Times,serif" font-size="14.00" fill="#000000">update</text>
<polyline fill="none" stroke="#000000" points="464,-570.5 567.1172,-570.5 "/>
<polyline fill="none" stroke="#000000" points="464,-546.5 567.1172,-546.5 "/>
<text text-anchor="start" x="472" y="-531.3" font-family="Times,serif" font-size="14.00" fill="#000000">_layout</text>
<text text-anchor="start" x="472" y="-517.3" font-family="Times,serif" font-size="14.00" fill="#000000">post_params</text>
<text text-anchor="start" x="472" y="-503.3" font-family="Times,serif" font-size="14.00" fill="#000000">set_post</text>
</g>
<!-- PreferecesController -->
<g id="node4" class="node">
<title>PreferecesController</title>
<path fill="none" stroke="#000000" d="M204,-192.5C204,-192.5 311.835,-192.5 311.835,-192.5 317.835,-192.5 323.835,-198.5 323.835,-204.5 323.835,-204.5 323.835,-382.5 323.835,-382.5 323.835,-388.5 317.835,-394.5 311.835,-394.5 311.835,-394.5 204,-394.5 204,-394.5 198,-394.5 192,-388.5 192,-382.5 192,-382.5 192,-204.5 192,-204.5 192,-198.5 198,-192.5 204,-192.5"/>
<text text-anchor="middle" x="257.9175" y="-379.3" font-family="Times,serif" font-size="14.00" fill="#000000">PreferecesController</text>
<polyline fill="none" stroke="#000000" points="192,-372.5 323.835,-372.5 "/>
<text text-anchor="start" x="200" y="-357.3" font-family="Times,serif" font-size="14.00" fill="#000000">index</text>
<text text-anchor="start" x="200" y="-343.3" font-family="Times,serif" font-size="14.00" fill="#000000">destroy</text>
<text text-anchor="start" x="200" y="-329.3" font-family="Times,serif" font-size="14.00" fill="#000000">edit</text>
<text text-anchor="start" x="200" y="-315.3" font-family="Times,serif" font-size="14.00" fill="#000000">create</text>
<text text-anchor="start" x="200" y="-301.3" font-family="Times,serif" font-size="14.00" fill="#000000">new</text>
<text text-anchor="start" x="200" y="-287.3" font-family="Times,serif" font-size="14.00" fill="#000000">show</text>
<text text-anchor="start" x="200" y="-273.3" font-family="Times,serif" font-size="14.00" fill="#000000">update</text>
<polyline fill="none" stroke="#000000" points="192,-266.5 323.835,-266.5 "/>
<polyline fill="none" stroke="#000000" points="192,-242.5 323.835,-242.5 "/>
<text text-anchor="start" x="200" y="-227.3" font-family="Times,serif" font-size="14.00" fill="#000000">_layout</text>
<text text-anchor="start" x="200" y="-213.3" font-family="Times,serif" font-size="14.00" fill="#000000">preferece_params</text>
<text text-anchor="start" x="200" y="-199.3" font-family="Times,serif" font-size="14.00" fill="#000000">set_preferece</text>
</g>
<!-- Users::ConfirmationsController -->
<g id="node5" class="node">
<title>Users::ConfirmationsController</title>
<path fill="none" stroke="#000000" d="M364,-96.5C364,-96.5 533.3242,-96.5 533.3242,-96.5 539.3242,-96.5 545.3242,-102.5 545.3242,-108.5 545.3242,-108.5 545.3242,-176.5 545.3242,-176.5 545.3242,-182.5 539.3242,-188.5 533.3242,-188.5 533.3242,-188.5 364,-188.5 364,-188.5 358,-188.5 352,-182.5 352,-176.5 352,-176.5 352,-108.5 352,-108.5 352,-102.5 358,-96.5 364,-96.5"/>
<text text-anchor="middle" x="448.6621" y="-173.3" font-family="Times,serif" font-size="14.00" fill="#000000">Users::ConfirmationsController</text>
<polyline fill="none" stroke="#000000" points="352,-166.5 545.3242,-166.5 "/>
<polyline fill="none" stroke="#000000" points="352,-142.5 545.3242,-142.5 "/>
<polyline fill="none" stroke="#000000" points="352,-118.5 545.3242,-118.5 "/>
<text text-anchor="start" x="360" y="-103.3" font-family="Times,serif" font-size="14.00" fill="#000000">_layout</text>
</g>
<!-- Users::OmniauthCallbacksController -->
<g id="node6" class="node">
<title>Users::OmniauthCallbacksController</title>
<path fill="none" stroke="#000000" d="M364,-368.5C364,-368.5 564.4072,-368.5 564.4072,-368.5 570.4072,-368.5 576.4072,-374.5 576.4072,-380.5 576.4072,-380.5 576.4072,-448.5 576.4072,-448.5 576.4072,-454.5 570.4072,-460.5 564.4072,-460.5 564.4072,-460.5 364,-460.5 364,-460.5 358,-460.5 352,-454.5 352,-448.5 352,-448.5 352,-380.5 352,-380.5 352,-374.5 358,-368.5 364,-368.5"/>
<text text-anchor="middle" x="464.2036" y="-445.3" font-family="Times,serif" font-size="14.00" fill="#000000">Users::OmniauthCallbacksController</text>
<polyline fill="none" stroke="#000000" points="352,-438.5 576.4072,-438.5 "/>
<polyline fill="none" stroke="#000000" points="352,-414.5 576.4072,-414.5 "/>
<polyline fill="none" stroke="#000000" points="352,-390.5 576.4072,-390.5 "/>
<text text-anchor="start" x="360" y="-375.3" font-family="Times,serif" font-size="14.00" fill="#000000">_layout</text>
</g>
<!-- Users::PasswordsController -->
<g id="node7" class="node">
<title>Users::PasswordsController</title>
<path fill="none" stroke="#000000" d="M12,-576.5C12,-576.5 160.3242,-576.5 160.3242,-576.5 166.3242,-576.5 172.3242,-582.5 172.3242,-588.5 172.3242,-588.5 172.3242,-656.5 172.3242,-656.5 172.3242,-662.5 166.3242,-668.5 160.3242,-668.5 160.3242,-668.5 12,-668.5 12,-668.5 6,-668.5 0,-662.5 0,-656.5 0,-656.5 0,-588.5 0,-588.5 0,-582.5 6,-576.5 12,-576.5"/>
<text text-anchor="middle" x="86.1621" y="-653.3" font-family="Times,serif" font-size="14.00" fill="#000000">Users::PasswordsController</text>
<polyline fill="none" stroke="#000000" points="0,-646.5 172.3242,-646.5 "/>
<polyline fill="none" stroke="#000000" points="0,-622.5 172.3242,-622.5 "/>
<polyline fill="none" stroke="#000000" points="0,-598.5 172.3242,-598.5 "/>
<text text-anchor="start" x="8" y="-583.3" font-family="Times,serif" font-size="14.00" fill="#000000">_layout</text>
</g>
<!-- Users::RegistrationsController -->
<g id="node8" class="node">
<title>Users::RegistrationsController</title>
<path fill="none" stroke="#000000" d="M364,-224.5C364,-224.5 551.1523,-224.5 551.1523,-224.5 557.1523,-224.5 563.1523,-230.5 563.1523,-236.5 563.1523,-236.5 563.1523,-316.5 563.1523,-316.5 563.1523,-322.5 557.1523,-328.5 551.1523,-328.5 551.1523,-328.5 364,-328.5 364,-328.5 358,-328.5 352,-322.5 352,-316.5 352,-316.5 352,-236.5 352,-236.5 352,-230.5 358,-224.5 364,-224.5"/>
<text text-anchor="middle" x="457.5762" y="-313.3" font-family="Times,serif" font-size="14.00" fill="#000000">Users::RegistrationsController</text>
<polyline fill="none" stroke="#000000" points="352,-306.5 563.1523,-306.5 "/>
<polyline fill="none" stroke="#000000" points="352,-282.5 563.1523,-282.5 "/>
<text text-anchor="start" x="360" y="-267.3" font-family="Times,serif" font-size="14.00" fill="#000000">configure_account_update_params</text>
<text text-anchor="start" x="360" y="-253.3" font-family="Times,serif" font-size="14.00" fill="#000000">configure_sign_up_params</text>
<polyline fill="none" stroke="#000000" points="352,-246.5 563.1523,-246.5 "/>
<text text-anchor="start" x="360" y="-231.3" font-family="Times,serif" font-size="14.00" fill="#000000">_layout</text>
</g>
<!-- Users::SessionsController -->
<g id="node9" class="node">
<title>Users::SessionsController</title>
<path fill="none" stroke="#000000" d="M28,-448.5C28,-448.5 165.4414,-448.5 165.4414,-448.5 171.4414,-448.5 177.4414,-454.5 177.4414,-460.5 177.4414,-460.5 177.4414,-528.5 177.4414,-528.5 177.4414,-534.5 171.4414,-540.5 165.4414,-540.5 165.4414,-540.5 28,-540.5 28,-540.5 22,-540.5 16,-534.5 16,-528.5 16,-528.5 16,-460.5 16,-460.5 16,-454.5 22,-448.5 28,-448.5"/>
<text text-anchor="middle" x="96.7207" y="-525.3" font-family="Times,serif" font-size="14.00" fill="#000000">Users::SessionsController</text>
<polyline fill="none" stroke="#000000" points="16,-518.5 177.4414,-518.5 "/>
<polyline fill="none" stroke="#000000" points="16,-494.5 177.4414,-494.5 "/>
<polyline fill="none" stroke="#000000" points="16,-470.5 177.4414,-470.5 "/>
<text text-anchor="start" x="24" y="-455.3" font-family="Times,serif" font-size="14.00" fill="#000000">_layout</text>
</g>
<!-- Users::UnlocksController -->
<g id="node10" class="node">
<title>Users::UnlocksController</title>
<path fill="none" stroke="#000000" d="M12,-320.5C12,-320.5 147.8691,-320.5 147.8691,-320.5 153.8691,-320.5 159.8691,-326.5 159.8691,-332.5 159.8691,-332.5 159.8691,-400.5 159.8691,-400.5 159.8691,-406.5 153.8691,-412.5 147.8691,-412.5 147.8691,-412.5 12,-412.5 12,-412.5 6,-412.5 0,-406.5 0,-400.5 0,-400.5 0,-332.5 0,-332.5 0,-326.5 6,-320.5 12,-320.5"/>
<text text-anchor="middle" x="79.9346" y="-397.3" font-family="Times,serif" font-size="14.00" fill="#000000">Users::UnlocksController</text>
<polyline fill="none" stroke="#000000" points="0,-390.5 159.8691,-390.5 "/>
<polyline fill="none" stroke="#000000" points="0,-366.5 159.8691,-366.5 "/>
<polyline fill="none" stroke="#000000" points="0,-342.5 159.8691,-342.5 "/>
<text text-anchor="start" x="8" y="-327.3" font-family="Times,serif" font-size="14.00" fill="#000000">_layout</text>
</g>
<!-- UsersController -->
<g id="node11" class="node">
<title>UsersController</title>
<path fill="none" stroke="#000000" d="M220,-432.5C220,-432.5 301.4277,-432.5 301.4277,-432.5 307.4277,-432.5 313.4277,-438.5 313.4277,-444.5 313.4277,-444.5 313.4277,-622.5 313.4277,-622.5 313.4277,-628.5 307.4277,-634.5 301.4277,-634.5 301.4277,-634.5 220,-634.5 220,-634.5 214,-634.5 208,-628.5 208,-622.5 208,-622.5 208,-444.5 208,-444.5 208,-438.5 214,-432.5 220,-432.5"/>
<text text-anchor="middle" x="260.7139" y="-619.3" font-family="Times,serif" font-size="14.00" fill="#000000">UsersController</text>
<polyline fill="none" stroke="#000000" points="208,-612.5 313.4277,-612.5 "/>
<text text-anchor="start" x="216" y="-597.3" font-family="Times,serif" font-size="14.00" fill="#000000">index</text>
<text text-anchor="start" x="216" y="-583.3" font-family="Times,serif" font-size="14.00" fill="#000000">destroy</text>
<text text-anchor="start" x="216" y="-569.3" font-family="Times,serif" font-size="14.00" fill="#000000">edit</text>
<text text-anchor="start" x="216" y="-555.3" font-family="Times,serif" font-size="14.00" fill="#000000">create</text>
<text text-anchor="start" x="216" y="-541.3" font-family="Times,serif" font-size="14.00" fill="#000000">new</text>
<text text-anchor="start" x="216" y="-527.3" font-family="Times,serif" font-size="14.00" fill="#000000">show</text>
<text text-anchor="start" x="216" y="-513.3" font-family="Times,serif" font-size="14.00" fill="#000000">update</text>
<polyline fill="none" stroke="#000000" points="208,-506.5 313.4277,-506.5 "/>
<polyline fill="none" stroke="#000000" points="208,-482.5 313.4277,-482.5 "/>
<text text-anchor="start" x="216" y="-467.3" font-family="Times,serif" font-size="14.00" fill="#000000">_layout</text>
<text text-anchor="start" x="216" y="-453.3" font-family="Times,serif" font-size="14.00" fill="#000000">set_user</text>
<text text-anchor="start" x="216" y="-439.3" font-family="Times,serif" font-size="14.00" fill="#000000">user_params</text>
</g>
<!-- WelcomeController -->
<g id="node12" class="node">
<title>WelcomeController</title>
<path fill="none" stroke="#000000" d="M588,-.5C588,-.5 690.0654,-.5 690.0654,-.5 696.0654,-.5 702.0654,-6.5 702.0654,-12.5 702.0654,-12.5 702.0654,-78.5 702.0654,-78.5 702.0654,-84.5 696.0654,-90.5 690.0654,-90.5 690.0654,-90.5 588,-90.5 588,-90.5 582,-90.5 576,-84.5 576,-78.5 576,-78.5 576,-12.5 576,-12.5 576,-6.5 582,-.5 588,-.5"/>
<text text-anchor="middle" x="639.0327" y="-75.3" font-family="Times,serif" font-size="14.00" fill="#000000">WelcomeController</text>
<polyline fill="none" stroke="#000000" points="576,-68.5 702.0654,-68.5 "/>
<text text-anchor="start" x="584" y="-53.3" font-family="Times,serif" font-size="14.00" fill="#000000">homepage</text>
<polyline fill="none" stroke="#000000" points="576,-46.5 702.0654,-46.5 "/>
<polyline fill="none" stroke="#000000" points="576,-22.5 702.0654,-22.5 "/>
<text text-anchor="start" x="584" y="-7.3" font-family="Times,serif" font-size="14.00" fill="#000000">_layout</text>
</g>
</g>
</svg>
