<?xml version="1.0" encoding="UTF-8" standalone="no"?>
<!DOCTYPE svg PUBLIC "-//W3C//DTD SVG 1.1//EN"
 "http://www.w3.org/Graphics/SVG/1.1/DTD/svg11.dtd">
<!-- Generated by graphviz version 2.40.1 (20161225.0304)
 -->
<!-- Title: models_diagram Pages: 1 -->
<svg width="1522pt" height="321pt"
 viewBox="0.00 0.00 1522.08 321.00" xmlns="http://www.w3.org/2000/svg" xmlns:xlink="http://www.w3.org/1999/xlink">
<g id="graph0" class="graph" transform="scale(1 1) rotate(0) translate(4 317)">
<title>models_diagram</title>
<polygon fill="transparent" stroke="transparent" points="-4,4 -4,-317 1518.0845,-317 1518.0845,4 -4,4"/>
<!-- _diagram_info -->
<g id="node1" class="node">
<title>_diagram_info</title>
<text text-anchor="start" x="8" y="-214.6" font-family="Times,serif" font-size="13.00" fill="#000000">Models diagram</text>
<text text-anchor="start" x="8" y="-201.6" font-family="Times,serif" font-size="13.00" fill="#000000">Date: Nov 02 2017 &#45; 13:23</text>
<text text-anchor="start" x="8" y="-188.6" font-family="Times,serif" font-size="13.00" fill="#000000">Migration version: 20171101225746</text>
<text text-anchor="start" x="8" y="-175.6" font-family="Times,serif" font-size="13.00" fill="#000000">Generated by RailRoady 1.5.3</text>
<text text-anchor="start" x="8" y="-162.6" font-family="Times,serif" font-size="13.00" fill="#000000">http://railroady.prestonlee.com</text>
</g>
<!-- ApplicationRecord -->
<g id="node2" class="node">
<title>ApplicationRecord</title>
<ellipse fill="none" stroke="#000000" cx="302.4497" cy="-192.5" rx="77.2916" ry="18"/>
<text text-anchor="middle" x="302.4497" y="-188.3" font-family="Times,serif" font-size="14.00" fill="#000000">ApplicationRecord</text>
</g>
<!-- Post -->
<g id="node3" class="node">
<title>Post</title>
<path fill="none" stroke="#000000" d="M409.5874,-142.5C409.5874,-142.5 633.312,-142.5 633.312,-142.5 639.312,-142.5 645.312,-148.5 645.312,-154.5 645.312,-154.5 645.312,-230.5 645.312,-230.5 645.312,-236.5 639.312,-242.5 633.312,-242.5 633.312,-242.5 409.5874,-242.5 409.5874,-242.5 403.5874,-242.5 397.5874,-236.5 397.5874,-230.5 397.5874,-230.5 397.5874,-154.5 397.5874,-154.5 397.5874,-148.5 403.5874,-142.5 409.5874,-142.5"/>
<text text-anchor="middle" x="521.4497" y="-227.3" font-family="Times,serif" font-size="14.00" fill="#000000">Post</text>
<polyline fill="none" stroke="#000000" points="397.5874,-220.5 645.312,-220.5 "/>
<text text-anchor="start" x="405.5874" y="-205.3" font-family="Times,serif" font-size="14.00" fill="#000000">id :bigint</text>
<text text-anchor="start" x="405.5874" y="-191.3" font-family="Times,serif" font-size="14.00" fill="#000000">title :character varying</text>
<text text-anchor="start" x="405.5874" y="-177.3" font-family="Times,serif" font-size="14.00" fill="#000000">content :text</text>
<text text-anchor="start" x="405.5874" y="-163.3" font-family="Times,serif" font-size="14.00" fill="#000000">created_at :timestamp without time zone</text>
<text text-anchor="start" x="405.5874" y="-149.3" font-family="Times,serif" font-size="14.00" fill="#000000">updated_at :timestamp without time zone</text>
</g>
<!-- Preferece -->
<g id="node4" class="node">
<title>Preferece</title>
<path fill="none" stroke="#000000" d="M675.5874,-100.5C675.5874,-100.5 899.312,-100.5 899.312,-100.5 905.312,-100.5 911.312,-106.5 911.312,-112.5 911.312,-112.5 911.312,-272.5 911.312,-272.5 911.312,-278.5 905.312,-284.5 899.312,-284.5 899.312,-284.5 675.5874,-284.5 675.5874,-284.5 669.5874,-284.5 663.5874,-278.5 663.5874,-272.5 663.5874,-272.5 663.5874,-112.5 663.5874,-112.5 663.5874,-106.5 669.5874,-100.5 675.5874,-100.5"/>
<text text-anchor="middle" x="787.4497" y="-269.3" font-family="Times,serif" font-size="14.00" fill="#000000">Preferece</text>
<polyline fill="none" stroke="#000000" points="663.5874,-262.5 911.312,-262.5 "/>
<text text-anchor="start" x="671.5874" y="-247.3" font-family="Times,serif" font-size="14.00" fill="#000000">updated_at :timestamp without time zone</text>
<text text-anchor="start" x="671.5874" y="-233.3" font-family="Times,serif" font-size="14.00" fill="#000000">tipe :character varying</text>
<text text-anchor="start" x="671.5874" y="-219.3" font-family="Times,serif" font-size="14.00" fill="#000000">name :character varying</text>
<text text-anchor="start" x="671.5874" y="-205.3" font-family="Times,serif" font-size="14.00" fill="#000000">description :character varying</text>
<text text-anchor="start" x="671.5874" y="-191.3" font-family="Times,serif" font-size="14.00" fill="#000000">Latitude :double precision</text>
<text text-anchor="start" x="671.5874" y="-177.3" font-family="Times,serif" font-size="14.00" fill="#000000">Longitude :double precision</text>
<text text-anchor="start" x="671.5874" y="-163.3" font-family="Times,serif" font-size="14.00" fill="#000000">zone :character varying</text>
<text text-anchor="start" x="671.5874" y="-149.3" font-family="Times,serif" font-size="14.00" fill="#000000">imgurl :character varying</text>
<text text-anchor="start" x="671.5874" y="-135.3" font-family="Times,serif" font-size="14.00" fill="#000000">search_id :bigint</text>
<text text-anchor="start" x="671.5874" y="-121.3" font-family="Times,serif" font-size="14.00" fill="#000000">created_at :timestamp without time zone</text>
<text text-anchor="start" x="671.5874" y="-107.3" font-family="Times,serif" font-size="14.00" fill="#000000">id :bigint</text>
</g>
<!-- Search -->
<g id="node5" class="node">
<title>Search</title>
<path fill="none" stroke="#000000" d="M941.5874,-142.5C941.5874,-142.5 1165.312,-142.5 1165.312,-142.5 1171.312,-142.5 1177.312,-148.5 1177.312,-154.5 1177.312,-154.5 1177.312,-230.5 1177.312,-230.5 1177.312,-236.5 1171.312,-242.5 1165.312,-242.5 1165.312,-242.5 941.5874,-242.5 941.5874,-242.5 935.5874,-242.5 929.5874,-236.5 929.5874,-230.5 929.5874,-230.5 929.5874,-154.5 929.5874,-154.5 929.5874,-148.5 935.5874,-142.5 941.5874,-142.5"/>
<text text-anchor="middle" x="1053.4497" y="-227.3" font-family="Times,serif" font-size="14.00" fill="#000000">Search</text>
<polyline fill="none" stroke="#000000" points="929.5874,-220.5 1177.312,-220.5 "/>
<text text-anchor="start" x="937.5874" y="-205.3" font-family="Times,serif" font-size="14.00" fill="#000000">id :bigint</text>
<text text-anchor="start" x="937.5874" y="-191.3" font-family="Times,serif" font-size="14.00" fill="#000000">tipe :character varying</text>
<text text-anchor="start" x="937.5874" y="-177.3" font-family="Times,serif" font-size="14.00" fill="#000000">zone :character varying</text>
<text text-anchor="start" x="937.5874" y="-163.3" font-family="Times,serif" font-size="14.00" fill="#000000">created_at :timestamp without time zone</text>
<text text-anchor="start" x="937.5874" y="-149.3" font-family="Times,serif" font-size="14.00" fill="#000000">updated_at :timestamp without time zone</text>
</g>
<!-- Preference -->
<g id="node7" class="node">
<title>Preference</title>
<ellipse fill="none" stroke="#000000" cx="1053.4497" cy="-18" rx="47.8151" ry="18"/>
<text text-anchor="middle" x="1053.4497" y="-13.8" font-family="Times,serif" font-size="14.00" fill="#000000">Preference</text>
</g>
<!-- Search&#45;&gt;Preference -->
<g id="edge1" class="edge">
<title>Search&#45;&gt;Preference</title>
<path fill="none" stroke="#6aaa57" d="M1053.4497,-134.4011C1053.4497,-104.6994 1053.4497,-69.9054 1053.4497,-46.1464"/>
<ellipse fill="none" stroke="#6aaa57" cx="1053.4498" cy="-138.4953" rx="4" ry="4"/>
<polygon fill="#6aaa57" stroke="#6aaa57" points="1053.4498,-46.0645 1057.9497,-36.0644 1053.4498,-41.0645 1053.4497,-36.0645 1053.4497,-36.0645 1053.4497,-36.0645 1053.4498,-41.0645 1048.9497,-36.0645 1053.4498,-46.0645 1053.4498,-46.0645"/>
</g>
<!-- User -->
<g id="node6" class="node">
<title>User</title>
<path fill="none" stroke="#000000" d="M1206.8149,-72.5C1206.8149,-72.5 1502.0845,-72.5 1502.0845,-72.5 1508.0845,-72.5 1514.0845,-78.5 1514.0845,-84.5 1514.0845,-84.5 1514.0845,-300.5 1514.0845,-300.5 1514.0845,-306.5 1508.0845,-312.5 1502.0845,-312.5 1502.0845,-312.5 1206.8149,-312.5 1206.8149,-312.5 1200.8149,-312.5 1194.8149,-306.5 1194.8149,-300.5 1194.8149,-300.5 1194.8149,-84.5 1194.8149,-84.5 1194.8149,-78.5 1200.8149,-72.5 1206.8149,-72.5"/>
<text text-anchor="middle" x="1354.4497" y="-297.3" font-family="Times,serif" font-size="14.00" fill="#000000">User</text>
<polyline fill="none" stroke="#000000" points="1194.8149,-290.5 1514.0845,-290.5 "/>
<text text-anchor="start" x="1202.8149" y="-275.3" font-family="Times,serif" font-size="14.00" fill="#000000">name :character varying</text>
<text text-anchor="start" x="1202.8149" y="-261.3" font-family="Times,serif" font-size="14.00" fill="#000000">email :character varying</text>
<text text-anchor="start" x="1202.8149" y="-247.3" font-family="Times,serif" font-size="14.00" fill="#000000">encrypted_password :character varying</text>
<text text-anchor="start" x="1202.8149" y="-233.3" font-family="Times,serif" font-size="14.00" fill="#000000">reset_password_token :character varying</text>
<text text-anchor="start" x="1202.8149" y="-219.3" font-family="Times,serif" font-size="14.00" fill="#000000">reset_password_sent_at :timestamp without time zone</text>
<text text-anchor="start" x="1202.8149" y="-205.3" font-family="Times,serif" font-size="14.00" fill="#000000">remember_created_at :timestamp without time zone</text>
<text text-anchor="start" x="1202.8149" y="-191.3" font-family="Times,serif" font-size="14.00" fill="#000000">sign_in_count :integer</text>
<text text-anchor="start" x="1202.8149" y="-177.3" font-family="Times,serif" font-size="14.00" fill="#000000">current_sign_in_at :timestamp without time zone</text>
<text text-anchor="start" x="1202.8149" y="-163.3" font-family="Times,serif" font-size="14.00" fill="#000000">last_sign_in_at :timestamp without time zone</text>
<text text-anchor="start" x="1202.8149" y="-149.3" font-family="Times,serif" font-size="14.00" fill="#000000">current_sign_in_ip :inet</text>
<text text-anchor="start" x="1202.8149" y="-135.3" font-family="Times,serif" font-size="14.00" fill="#000000">last_sign_in_ip :inet</text>
<text text-anchor="start" x="1202.8149" y="-121.3" font-family="Times,serif" font-size="14.00" fill="#000000">created_at :timestamp without time zone</text>
<text text-anchor="start" x="1202.8149" y="-107.3" font-family="Times,serif" font-size="14.00" fill="#000000">updated_at :timestamp without time zone</text>
<text text-anchor="start" x="1202.8149" y="-93.3" font-family="Times,serif" font-size="14.00" fill="#000000">admin :boolean</text>
<text text-anchor="start" x="1202.8149" y="-79.3" font-family="Times,serif" font-size="14.00" fill="#000000">id :bigint</text>
</g>
</g>
</svg>
