<?xml version="1.0" encoding="UTF-8" standalone="no"?>
<!DOCTYPE svg PUBLIC "-//W3C//DTD SVG 1.1//EN"
 "http://www.w3.org/Graphics/SVG/1.1/DTD/svg11.dtd">
<!-- Generated by graphviz version 2.40.1 (20161225.0304)
 -->
<!-- Title: models_diagram Pages: 1 -->
<svg width="529pt" height="225pt"
 viewBox="0.00 0.00 528.62 225.00" xmlns="http://www.w3.org/2000/svg" xmlns:xlink="http://www.w3.org/1999/xlink">
<g id="graph0" class="graph" transform="scale(1 1) rotate(0) translate(4 221)">
<title>models_diagram</title>
<polygon fill="transparent" stroke="transparent" points="-4,4 -4,-221 524.617,-221 524.617,4 -4,4"/>
<!-- _diagram_info -->
<g id="node1" class="node">
<title>_diagram_info</title>
<text text-anchor="start" x="8" y="-202.6" font-family="Times,serif" font-size="13.00" fill="#000000">Models diagram</text>
<text text-anchor="start" x="8" y="-189.6" font-family="Times,serif" font-size="13.00" fill="#000000">Date: Nov 02 2017 &#45; 13:39</text>
<text text-anchor="start" x="8" y="-176.6" font-family="Times,serif" font-size="13.00" fill="#000000">Migration version: 20171101225746</text>
<text text-anchor="start" x="8" y="-163.6" font-family="Times,serif" font-size="13.00" fill="#000000">Generated by RailRoady 1.5.3</text>
<text text-anchor="start" x="8" y="-150.6" font-family="Times,serif" font-size="13.00" fill="#000000">http://railroady.prestonlee.com</text>
</g>
<!-- ApplicationRecord -->
<g id="node2" class="node">
<title>ApplicationRecord</title>
<ellipse fill="none" stroke="#000000" cx="302.4497" cy="-180.5" rx="77.2916" ry="18"/>
<text text-anchor="middle" x="302.4497" y="-176.3" font-family="Times,serif" font-size="14.00" fill="#000000">ApplicationRecord</text>
</g>
<!-- Post -->
<g id="node3" class="node">
<title>Post</title>
<ellipse fill="none" stroke="#000000" cx="369.4497" cy="-90" rx="27" ry="18"/>
<text text-anchor="middle" x="369.4497" y="-85.8" font-family="Times,serif" font-size="14.00" fill="#000000">Post</text>
</g>
<!-- Preferece -->
<g id="node4" class="node">
<title>Preferece</title>
<ellipse fill="none" stroke="#000000" cx="455.4497" cy="-18" rx="43.4714" ry="18"/>
<text text-anchor="middle" x="455.4497" y="-13.8" font-family="Times,serif" font-size="14.00" fill="#000000">Preferece</text>
</g>
<!-- Search -->
<g id="node5" class="node">
<title>Search</title>
<ellipse fill="none" stroke="#000000" cx="486.4497" cy="-90" rx="34.3354" ry="18"/>
<text text-anchor="middle" x="486.4497" y="-85.8" font-family="Times,serif" font-size="14.00" fill="#000000">Search</text>
</g>
<!-- Search&#45;&gt;Preferece -->
<g id="edge1" class="edge">
<title>Search&#45;&gt;Preferece</title>
<path fill="none" stroke="#bbe3e8" d="M475.6146,-64.8345C472.9133,-58.5606 470.0035,-51.8024 467.2579,-45.4255"/>
<ellipse fill="none" stroke="#bbe3e8" cx="477.2049" cy="-68.5283" rx="4" ry="4"/>
<polygon fill="#bbe3e8" stroke="#bbe3e8" points="467.0866,-45.0274 467.2651,-34.063 465.1092,-40.435 463.1319,-35.8425 463.1319,-35.8425 463.1319,-35.8425 465.1092,-40.435 458.9987,-37.6221 467.0866,-45.0274 467.0866,-45.0274"/>
</g>
<!-- User -->
<g id="node6" class="node">
<title>User</title>
<ellipse fill="none" stroke="#000000" cx="424.4497" cy="-180.5" rx="27" ry="18"/>
<text text-anchor="middle" x="424.4497" y="-176.3" font-family="Times,serif" font-size="14.00" fill="#000000">User</text>
</g>
<!-- User&#45;&gt;Post -->
<g id="edge3" class="edge">
<title>User&#45;&gt;Post</title>
<path fill="none" stroke="#062e7a" d="M409.6944,-156.2208C402.0803,-143.6922 392.7927,-128.4098 385.059,-115.6843"/>
<ellipse fill="none" stroke="#062e7a" cx="412.0272" cy="-160.0594" rx="4" ry="4"/>
<polygon fill="#062e7a" stroke="#062e7a" points="384.9419,-115.4917 383.5939,-104.6089 382.3452,-111.2189 379.7484,-106.946 379.7484,-106.946 379.7484,-106.946 382.3452,-111.2189 375.9029,-109.2831 384.9419,-115.4917 384.9419,-115.4917"/>
</g>
<!-- User&#45;&gt;Preferece -->
<g id="edge2" class="edge">
<title>User&#45;&gt;Preferece</title>
<path fill="none" stroke="#4d7c93" d="M428.6617,-154.5064C432.3108,-132.4881 437.8684,-100.1088 443.4497,-72 445.1331,-63.5222 447.116,-54.3311 448.9798,-45.9762"/>
<ellipse fill="none" stroke="#4d7c93" cx="428.0105" cy="-158.4605" rx="4" ry="4"/>
<polygon fill="#4d7c93" stroke="#4d7c93" points="449.0397,-45.7108 455.6345,-36.9495 450.1425,-40.8339 451.2453,-35.957 451.2453,-35.957 451.2453,-35.957 450.1425,-40.8339 446.8561,-34.9645 449.0397,-45.7108 449.0397,-45.7108"/>
</g>
<!-- User&#45;&gt;Search -->
<g id="edge4" class="edge">
<title>User&#45;&gt;Search</title>
<path fill="none" stroke="#18bac4" d="M440.4957,-157.078C449.1976,-144.376 459.9669,-128.6564 468.8923,-115.6282"/>
<ellipse fill="none" stroke="#18bac4" cx="438.0822" cy="-160.601" rx="4" ry="4"/>
<polygon fill="#18bac4" stroke="#18bac4" points="469.077,-115.3585 478.4412,-109.6521 471.9029,-111.2337 474.7288,-107.1088 474.7288,-107.1088 474.7288,-107.1088 471.9029,-111.2337 471.0164,-104.5655 469.077,-115.3585 469.077,-115.3585"/>
</g>
</g>
</svg>
