<?xml version="1.0" encoding="UTF-8" standalone="no"?>
<!DOCTYPE svg PUBLIC "-//W3C//DTD SVG 1.1//EN"
 "http://www.w3.org/Graphics/SVG/1.1/DTD/svg11.dtd">
<!-- Generated by graphviz version 2.40.1 (20161225.0304)
 -->
<!-- Title: models_diagram Pages: 1 -->
<svg width="722pt" height="153pt"
 viewBox="0.00 0.00 722.45 153.00" xmlns="http://www.w3.org/2000/svg" xmlns:xlink="http://www.w3.org/1999/xlink">
<g id="graph0" class="graph" transform="scale(1 1) rotate(0) translate(4 149)">
<title>models_diagram</title>
<polygon fill="transparent" stroke="transparent" points="-4,4 -4,-149 718.4497,-149 718.4497,4 -4,4"/>
<!-- _diagram_info -->
<g id="node1" class="node">
<title>_diagram_info</title>
<text text-anchor="start" x="8" y="-130.6" font-family="Times,serif" font-size="13.00" fill="#000000">Models diagram</text>
<text text-anchor="start" x="8" y="-117.6" font-family="Times,serif" font-size="13.00" fill="#000000">Date: Nov 02 2017 &#45; 13:24</text>
<text text-anchor="start" x="8" y="-104.6" font-family="Times,serif" font-size="13.00" fill="#000000">Migration version: 20171101225746</text>
<text text-anchor="start" x="8" y="-91.6" font-family="Times,serif" font-size="13.00" fill="#000000">Generated by RailRoady 1.5.3</text>
<text text-anchor="start" x="8" y="-78.6" font-family="Times,serif" font-size="13.00" fill="#000000">http://railroady.prestonlee.com</text>
</g>
<!-- ApplicationRecord -->
<g id="node2" class="node">
<title>ApplicationRecord</title>
<ellipse fill="none" stroke="#000000" cx="302.4497" cy="-108.5" rx="77.2916" ry="18"/>
<text text-anchor="middle" x="302.4497" y="-104.3" font-family="Times,serif" font-size="14.00" fill="#000000">ApplicationRecord</text>
</g>
<!-- Post -->
<g id="node3" class="node">
<title>Post</title>
<ellipse fill="none" stroke="#000000" cx="424.4497" cy="-108.5" rx="27" ry="18"/>
<text text-anchor="middle" x="424.4497" y="-104.3" font-family="Times,serif" font-size="14.00" fill="#000000">Post</text>
</g>
<!-- Preferece -->
<g id="node4" class="node">
<title>Preferece</title>
<ellipse fill="none" stroke="#000000" cx="512.4497" cy="-108.5" rx="43.4714" ry="18"/>
<text text-anchor="middle" x="512.4497" y="-104.3" font-family="Times,serif" font-size="14.00" fill="#000000">Preferece</text>
</g>
<!-- Search -->
<g id="node5" class="node">
<title>Search</title>
<ellipse fill="none" stroke="#000000" cx="608.4497" cy="-108.5" rx="34.3354" ry="18"/>
<text text-anchor="middle" x="608.4497" y="-104.3" font-family="Times,serif" font-size="14.00" fill="#000000">Search</text>
</g>
<!-- Preference -->
<g id="node7" class="node">
<title>Preference</title>
<ellipse fill="none" stroke="#000000" cx="608.4497" cy="-18" rx="47.8151" ry="18"/>
<text text-anchor="middle" x="608.4497" y="-13.8" font-family="Times,serif" font-size="14.00" fill="#000000">Preference</text>
</g>
<!-- Search&#45;&gt;Preference -->
<g id="edge1" class="edge">
<title>Search&#45;&gt;Preference</title>
<path fill="none" stroke="#b07177" d="M608.4497,-81.9687C608.4497,-70.8402 608.4497,-57.878 608.4497,-46.5429"/>
<ellipse fill="none" stroke="#b07177" cx="608.4498" cy="-86.186" rx="4" ry="4"/>
<polygon fill="#b07177" stroke="#b07177" points="608.4498,-46.2868 612.9497,-36.2867 608.4498,-41.2868 608.4497,-36.2868 608.4497,-36.2868 608.4497,-36.2868 608.4498,-41.2868 603.9497,-36.2868 608.4498,-46.2868 608.4498,-46.2868"/>
</g>
<!-- User -->
<g id="node6" class="node">
<title>User</title>
<ellipse fill="none" stroke="#000000" cx="687.4497" cy="-108.5" rx="27" ry="18"/>
<text text-anchor="middle" x="687.4497" y="-104.3" font-family="Times,serif" font-size="14.00" fill="#000000">User</text>
</g>
</g>
</svg>
