<?xml version="1.0" encoding="UTF-8" standalone="no"?>
<!DOCTYPE svg PUBLIC "-//W3C//DTD SVG 1.1//EN"
 "http://www.w3.org/Graphics/SVG/1.1/DTD/svg11.dtd">
<!-- Generated by graphviz version 2.40.1 (20161225.0304)
 -->
<!-- Title: models_diagram Pages: 1 -->
<svg width="841pt" height="607pt"
 viewBox="0.00 0.00 841.31 607.00" xmlns="http://www.w3.org/2000/svg" xmlns:xlink="http://www.w3.org/1999/xlink">
<g id="graph0" class="graph" transform="scale(1 1) rotate(0) translate(4 603)">
<title>models_diagram</title>
<polygon fill="transparent" stroke="transparent" points="-4,4 -4,-603 837.312,-603 837.312,4 -4,4"/>
<!-- _diagram_info -->
<g id="node1" class="node">
<title>_diagram_info</title>
<text text-anchor="start" x="8" y="-500.6" font-family="Times,serif" font-size="13.00" fill="#000000">Models diagram</text>
<text text-anchor="start" x="8" y="-487.6" font-family="Times,serif" font-size="13.00" fill="#000000">Date: Nov 02 2017 &#45; 13:39</text>
<text text-anchor="start" x="8" y="-474.6" font-family="Times,serif" font-size="13.00" fill="#000000">Migration version: 20171101225746</text>
<text text-anchor="start" x="8" y="-461.6" font-family="Times,serif" font-size="13.00" fill="#000000">Generated by RailRoady 1.5.3</text>
<text text-anchor="start" x="8" y="-448.6" font-family="Times,serif" font-size="13.00" fill="#000000">http://railroady.prestonlee.com</text>
</g>
<!-- ApplicationRecord -->
<g id="node2" class="node">
<title>ApplicationRecord</title>
<ellipse fill="none" stroke="#000000" cx="302.4497" cy="-478.5" rx="77.2916" ry="18"/>
<text text-anchor="middle" x="302.4497" y="-474.3" font-family="Times,serif" font-size="14.00" fill="#000000">ApplicationRecord</text>
</g>
<!-- Post -->
<g id="node3" class="node">
<title>Post</title>
<path fill="none" stroke="#000000" d="M293.5874,-221.5C293.5874,-221.5 517.312,-221.5 517.312,-221.5 523.312,-221.5 529.312,-227.5 529.312,-233.5 529.312,-233.5 529.312,-309.5 529.312,-309.5 529.312,-315.5 523.312,-321.5 517.312,-321.5 517.312,-321.5 293.5874,-321.5 293.5874,-321.5 287.5874,-321.5 281.5874,-315.5 281.5874,-309.5 281.5874,-309.5 281.5874,-233.5 281.5874,-233.5 281.5874,-227.5 287.5874,-221.5 293.5874,-221.5"/>
<text text-anchor="middle" x="405.4497" y="-306.3" font-family="Times,serif" font-size="14.00" fill="#000000">Post</text>
<polyline fill="none" stroke="#000000" points="281.5874,-299.5 529.312,-299.5 "/>
<text text-anchor="start" x="289.5874" y="-284.3" font-family="Times,serif" font-size="14.00" fill="#000000">id :bigint</text>
<text text-anchor="start" x="289.5874" y="-270.3" font-family="Times,serif" font-size="14.00" fill="#000000">title :character varying</text>
<text text-anchor="start" x="289.5874" y="-256.3" font-family="Times,serif" font-size="14.00" fill="#000000">content :text</text>
<text text-anchor="start" x="289.5874" y="-242.3" font-family="Times,serif" font-size="14.00" fill="#000000">created_at :timestamp without time zone</text>
<text text-anchor="start" x="289.5874" y="-228.3" font-family="Times,serif" font-size="14.00" fill="#000000">updated_at :timestamp without time zone</text>
</g>
<!-- Preferece -->
<g id="node4" class="node">
<title>Preferece</title>
<path fill="none" stroke="#000000" d="M521.5874,-.5C521.5874,-.5 745.312,-.5 745.312,-.5 751.312,-.5 757.312,-6.5 757.312,-12.5 757.312,-12.5 757.312,-172.5 757.312,-172.5 757.312,-178.5 751.312,-184.5 745.312,-184.5 745.312,-184.5 521.5874,-184.5 521.5874,-184.5 515.5874,-184.5 509.5874,-178.5 509.5874,-172.5 509.5874,-172.5 509.5874,-12.5 509.5874,-12.5 509.5874,-6.5 515.5874,-.5 521.5874,-.5"/>
<text text-anchor="middle" x="633.4497" y="-169.3" font-family="Times,serif" font-size="14.00" fill="#000000">Preferece</text>
<polyline fill="none" stroke="#000000" points="509.5874,-162.5 757.312,-162.5 "/>
<text text-anchor="start" x="517.5874" y="-147.3" font-family="Times,serif" font-size="14.00" fill="#000000">updated_at :timestamp without time zone</text>
<text text-anchor="start" x="517.5874" y="-133.3" font-family="Times,serif" font-size="14.00" fill="#000000">tipe :character varying</text>
<text text-anchor="start" x="517.5874" y="-119.3" font-family="Times,serif" font-size="14.00" fill="#000000">name :character varying</text>
<text text-anchor="start" x="517.5874" y="-105.3" font-family="Times,serif" font-size="14.00" fill="#000000">description :character varying</text>
<text text-anchor="start" x="517.5874" y="-91.3" font-family="Times,serif" font-size="14.00" fill="#000000">Latitude :double precision</text>
<text text-anchor="start" x="517.5874" y="-77.3" font-family="Times,serif" font-size="14.00" fill="#000000">Longitude :double precision</text>
<text text-anchor="start" x="517.5874" y="-63.3" font-family="Times,serif" font-size="14.00" fill="#000000">zone :character varying</text>
<text text-anchor="start" x="517.5874" y="-49.3" font-family="Times,serif" font-size="14.00" fill="#000000">imgurl :character varying</text>
<text text-anchor="start" x="517.5874" y="-35.3" font-family="Times,serif" font-size="14.00" fill="#000000">search_id :bigint</text>
<text text-anchor="start" x="517.5874" y="-21.3" font-family="Times,serif" font-size="14.00" fill="#000000">created_at :timestamp without time zone</text>
<text text-anchor="start" x="517.5874" y="-7.3" font-family="Times,serif" font-size="14.00" fill="#000000">id :bigint</text>
</g>
<!-- Search -->
<g id="node5" class="node">
<title>Search</title>
<path fill="none" stroke="#000000" d="M597.5874,-221.5C597.5874,-221.5 821.312,-221.5 821.312,-221.5 827.312,-221.5 833.312,-227.5 833.312,-233.5 833.312,-233.5 833.312,-309.5 833.312,-309.5 833.312,-315.5 827.312,-321.5 821.312,-321.5 821.312,-321.5 597.5874,-321.5 597.5874,-321.5 591.5874,-321.5 585.5874,-315.5 585.5874,-309.5 585.5874,-309.5 585.5874,-233.5 585.5874,-233.5 585.5874,-227.5 591.5874,-221.5 597.5874,-221.5"/>
<text text-anchor="middle" x="709.4497" y="-306.3" font-family="Times,serif" font-size="14.00" fill="#000000">Search</text>
<polyline fill="none" stroke="#000000" points="585.5874,-299.5 833.312,-299.5 "/>
<text text-anchor="start" x="593.5874" y="-284.3" font-family="Times,serif" font-size="14.00" fill="#000000">id :bigint</text>
<text text-anchor="start" x="593.5874" y="-270.3" font-family="Times,serif" font-size="14.00" fill="#000000">tipe :character varying</text>
<text text-anchor="start" x="593.5874" y="-256.3" font-family="Times,serif" font-size="14.00" fill="#000000">zone :character varying</text>
<text text-anchor="start" x="593.5874" y="-242.3" font-family="Times,serif" font-size="14.00" fill="#000000">created_at :timestamp without time zone</text>
<text text-anchor="start" x="593.5874" y="-228.3" font-family="Times,serif" font-size="14.00" fill="#000000">updated_at :timestamp without time zone</text>
</g>
<!-- Search&#45;&gt;Preferece -->
<g id="edge1" class="edge">
<title>Search&#45;&gt;Preferece</title>
<path fill="none" stroke="#e71c48" d="M684.9366,-213.7653C682.1992,-207.3179 679.3545,-200.6178 676.4705,-193.8252"/>
<ellipse fill="none" stroke="#e71c48" cx="686.5139" cy="-217.4803" rx="4" ry="4"/>
<polygon fill="#e71c48" stroke="#e71c48" points="676.428,-193.7251 676.6619,-182.7617 674.4739,-189.1227 672.5198,-184.5204 672.5198,-184.5204 672.5198,-184.5204 674.4739,-189.1227 668.3777,-186.2791 676.428,-193.7251 676.428,-193.7251"/>
</g>
<!-- User -->
<g id="node6" class="node">
<title>User</title>
<path fill="none" stroke="#000000" d="M409.8149,-358.5C409.8149,-358.5 705.0845,-358.5 705.0845,-358.5 711.0845,-358.5 717.0845,-364.5 717.0845,-370.5 717.0845,-370.5 717.0845,-586.5 717.0845,-586.5 717.0845,-592.5 711.0845,-598.5 705.0845,-598.5 705.0845,-598.5 409.8149,-598.5 409.8149,-598.5 403.8149,-598.5 397.8149,-592.5 397.8149,-586.5 397.8149,-586.5 397.8149,-370.5 397.8149,-370.5 397.8149,-364.5 403.8149,-358.5 409.8149,-358.5"/>
<text text-anchor="middle" x="557.4497" y="-583.3" font-family="Times,serif" font-size="14.00" fill="#000000">User</text>
<polyline fill="none" stroke="#000000" points="397.8149,-576.5 717.0845,-576.5 "/>
<text text-anchor="start" x="405.8149" y="-561.3" font-family="Times,serif" font-size="14.00" fill="#000000">name :character varying</text>
<text text-anchor="start" x="405.8149" y="-547.3" font-family="Times,serif" font-size="14.00" fill="#000000">email :character varying</text>
<text text-anchor="start" x="405.8149" y="-533.3" font-family="Times,serif" font-size="14.00" fill="#000000">encrypted_password :character varying</text>
<text text-anchor="start" x="405.8149" y="-519.3" font-family="Times,serif" font-size="14.00" fill="#000000">reset_password_token :character varying</text>
<text text-anchor="start" x="405.8149" y="-505.3" font-family="Times,serif" font-size="14.00" fill="#000000">reset_password_sent_at :timestamp without time zone</text>
<text text-anchor="start" x="405.8149" y="-491.3" font-family="Times,serif" font-size="14.00" fill="#000000">remember_created_at :timestamp without time zone</text>
<text text-anchor="start" x="405.8149" y="-477.3" font-family="Times,serif" font-size="14.00" fill="#000000">sign_in_count :integer</text>
<text text-anchor="start" x="405.8149" y="-463.3" font-family="Times,serif" font-size="14.00" fill="#000000">current_sign_in_at :timestamp without time zone</text>
<text text-anchor="start" x="405.8149" y="-449.3" font-family="Times,serif" font-size="14.00" fill="#000000">last_sign_in_at :timestamp without time zone</text>
<text text-anchor="start" x="405.8149" y="-435.3" font-family="Times,serif" font-size="14.00" fill="#000000">current_sign_in_ip :inet</text>
<text text-anchor="start" x="405.8149" y="-421.3" font-family="Times,serif" font-size="14.00" fill="#000000">last_sign_in_ip :inet</text>
<text text-anchor="start" x="405.8149" y="-407.3" font-family="Times,serif" font-size="14.00" fill="#000000">created_at :timestamp without time zone</text>
<text text-anchor="start" x="405.8149" y="-393.3" font-family="Times,serif" font-size="14.00" fill="#000000">updated_at :timestamp without time zone</text>
<text text-anchor="start" x="405.8149" y="-379.3" font-family="Times,serif" font-size="14.00" fill="#000000">admin :boolean</text>
<text text-anchor="start" x="405.8149" y="-365.3" font-family="Times,serif" font-size="14.00" fill="#000000">id :bigint</text>
</g>
<!-- User&#45;&gt;Post -->
<g id="edge3" class="edge">
<title>User&#45;&gt;Post</title>
<path fill="none" stroke="#a88fe3" d="M464.4146,-351.8008C458.8653,-344.2436 453.4437,-336.8603 448.2767,-329.8236"/>
<ellipse fill="none" stroke="#a88fe3" cx="466.8832" cy="-355.1628" rx="4" ry="4"/>
<polygon fill="#a88fe3" stroke="#a88fe3" points="448.2543,-329.7931 445.9628,-319.0693 445.295,-325.7629 442.3356,-321.7328 442.3356,-321.7328 442.3356,-321.7328 445.295,-325.7629 438.7084,-324.3962 448.2543,-329.7931 448.2543,-329.7931"/>
</g>
<!-- User&#45;&gt;Preferece -->
<g id="edge2" class="edge">
<title>User&#45;&gt;Preferece</title>
<path fill="none" stroke="#6d81c7" d="M558.2478,-350.2345C560.7976,-308.5336 566.0835,-262.3594 576.4497,-221 578.6719,-212.1337 581.464,-203.1113 584.6115,-194.1682"/>
<ellipse fill="none" stroke="#6d81c7" cx="558.0176" cy="-354.2457" rx="4" ry="4"/>
<polygon fill="#6d81c7" stroke="#6d81c7" points="584.7119,-193.8943 592.3809,-186.0562 586.4341,-189.2003 588.1563,-184.5062 588.1563,-184.5062 588.1563,-184.5062 586.4341,-189.2003 583.9316,-182.9563 584.7119,-193.8943 584.7119,-193.8943"/>
</g>
<!-- User&#45;&gt;Search -->
<g id="edge4" class="edge">
<title>User&#45;&gt;Search</title>
<path fill="none" stroke="#dfe61d" d="M650.4849,-351.8008C656.0341,-344.2436 661.4557,-336.8603 666.6227,-329.8236"/>
<ellipse fill="none" stroke="#dfe61d" cx="648.0162" cy="-355.1628" rx="4" ry="4"/>
<polygon fill="#dfe61d" stroke="#dfe61d" points="666.6451,-329.7931 676.191,-324.3962 669.6045,-325.7629 672.5638,-321.7328 672.5638,-321.7328 672.5638,-321.7328 669.6045,-325.7629 668.9367,-319.0693 666.6451,-329.7931 666.6451,-329.7931"/>
</g>
</g>
</svg>
